# xmcd
#
# Track frame offsets: 
#        150
#        10155
#        20132
#        35020
#        48519
#        59448
#        71925
#        85565
#        99148
#        103738
#        117347
#
# Disc length: 1779 seconds
#
# Revision: 0
# Processed by: cddbd v1.5.2PL0 Copyright (c) Steve Scherf et al.
# Submitted via: ExactAudioCopy v0.99pb4
#
DISCID=9006f10b
DTITLE=Leon Russell - Bad Country
DYEAR=2007
DGENRE=
TTITLE0=A Little Bit of Your Love
TTITLE1=Honkytonk Dream
TTITLE2=Oklahoma Girl
TTITLE3=California Dreams
TTITLE4=Hungry Eyes
TTITLE5=Real Love
TTITLE6=Rio Grande
TTITLE7=Sweet Magic Love
TTITLE8=Tennessee Hayride
TTITLE9=Come Lay With Me
TTITLE10=Bad Country
EXTD=
EXTT0=
EXTT1=
EXTT2=
EXTT3=
EXTT4=
EXTT5=
EXTT6=
EXTT7=
EXTT8=
EXTT9=
EXTT10=
PLAYORDER=
